<?xml version="1.0" encoding="utf-8"?>
<!-- Generator: Adobe Illustrator 25.1.0, SVG Export Plug-In . SVG Version: 6.00 Build 0)  -->
<svg version="1.1" id="Outline" xmlns="http://www.w3.org/2000/svg" xmlns:xlink="http://www.w3.org/1999/xlink" x="0px" y="0px"
	 viewBox="0 0 24 24" style="enable-background:new 0 0 24 24;" xml:space="preserve">
<style type="text/css">
	.st0{fill:#FFFFFF;}
</style>
<path class="st0" d="M13.1,6.3c-0.4,0.4-0.4,1,0,1.4l3.3,3.3L6,11c-0.6,0-1,0.4-1,1s0.4,1,1,1l10.4,0l-3.3,3.3c-0.4,0.4-0.4,1,0,1.4
	s1,0.4,1.4,0c0,0,0,0,0,0l3.6-3.6c1.2-1.2,1.2-3.1,0-4.2c0,0,0,0,0,0l-3.6-3.6C14.1,5.9,13.5,5.9,13.1,6.3z"/>
</svg>